<svg width="1338" height="59" viewBox="0 0 1338 59" fill="none" xmlns="http://www.w3.org/2000/svg">
<g clip-path="url(#clip0_563_23)">
<path d="M0 7C19.1674 7 36.0321 18.3 52.8755 29.6C69.6762 40.9 86.5623 52.2 105.538 52.2C124.684 52.1998 141.57 40.9 158.2 29.6C174.83 18.3 191.887 7 210.862 7C229.838 7 246.894 18.3 263.525 29.6C280.325 40.9 297.211 52.2 316.187 52.2C335.333 52.1998 352.219 40.9 368.849 29.6C385.479 18.3 402.536 7 421.511 7C440.657 7.00019 457.543 18.3 474.174 29.6C490.804 40.9 507.86 52.2 526.836 52.2C545.811 52.2 562.868 40.9 579.498 29.6C596.299 18.3 613.185 7 632.16 7C651.306 7.00019 668.193 18.3 684.823 29.6C701.623 40.9 718.509 52.2 737.485 52.2C756.46 52.2 773.517 40.9 790.147 29.6C806.948 18.3 823.834 7 842.809 7C861.955 7.00019 878.842 18.3 895.472 29.6C912.272 40.9 929.158 52.2 948.347 52.2" stroke="#00DDB3" stroke-opacity="0.4" stroke-width="3"/>
<path d="M948.538 52.2C967.684 52.1998 984.57 40.9 1001.2 29.6C1017.83 18.3 1034.89 7 1053.86 7C1072.84 7 1089.89 18.3 1106.52 29.6C1123.33 40.9 1140.21 52.2 1159.19 52.2C1178.33 52.1998 1195.22 40.9 1211.85 29.6C1228.48 18.3 1245.54 7 1264.51 7C1283.66 7.00019 1300.54 18.3 1317.17 29.6C1333.8 40.9 1350.86 52.2 1369.84 52.2C1388.81 52.2 1405.87 40.9 1422.5 29.6C1439.3 18.3 1456.18 7 1475.16 7C1494.31 7.00019 1511.19 18.3 1527.82 29.6C1544.62 40.9 1561.51 52.2 1580.48 52.2C1599.46 52.2 1616.52 40.9 1633.15 29.6C1649.95 18.3 1666.83 7 1685.81 7C1704.96 7.00019 1721.84 18.3 1738.47 29.6C1755.27 40.9 1772.16 52.2 1791.35 52.2" stroke="#00DDB3" stroke-opacity="0.4" stroke-width="4"/>
<circle cx="106" cy="51" r="8" fill="#00DDB3"/>
<circle cx="422" cy="8" r="8" fill="#00DDB3"/>
<circle cx="741" cy="51" r="8" fill="#00DDB3"/>
<circle cx="1054" cy="8" r="8" fill="#00DDB3"/>
<circle cx="1317" cy="30" r="8" fill="#00DDB3"/>
</g>
<defs>
<clipPath id="clip0_563_23">
<rect width="1338" height="59" fill="white"/>
</clipPath>
</defs>
</svg>
