<svg width="73" height="70" viewBox="0 0 73 70" fill="none" xmlns="http://www.w3.org/2000/svg">
<path d="M34.7691 24.6367C35.2886 21.2967 34.7691 1 34.7691 1C28.482 19.9292 20.913 26.9835 1 33.8858C1 33.8858 16.0662 34.1427 22.82 33.8858C29.5739 33.6289 34.2496 27.9766 34.7691 24.6367Z" fill="#00DDB3" stroke="#00DDB3"/>
<path d="M38.2309 24.6367C37.7114 21.2967 38.2309 1 38.2309 1C44.518 19.9292 52.087 26.9835 72 33.8858C72 33.8858 56.9338 34.1427 50.18 33.8858C43.4261 33.6289 38.7504 27.9766 38.2309 24.6367Z" fill="#00DDB3" stroke="#00DDB3"/>
<path d="M38.2309 46.0796C37.7114 49.3183 38.2309 69 38.2309 69C44.518 50.6444 52.087 43.8038 72 37.1107C72 37.1107 56.9338 36.8616 50.18 37.1107C43.4261 37.3599 38.7504 42.8408 38.2309 46.0796Z" fill="#00DDB3" stroke="#00DDB3"/>
</svg>
