<svg width="370" height="171" viewBox="0 0 370 171" fill="none" xmlns="http://www.w3.org/2000/svg">
<path fill-rule="evenodd" clip-rule="evenodd" d="M8 32C3.58172 32 0 35.5817 0 40V163C0 167.418 3.58171 171 7.99999 171H333C337.418 171 341 167.418 341 163V40C341 35.5817 337.418 32 333 32H8ZM16 40C11.5817 40 8 43.5817 8 48V155C8 159.418 11.5817 163 16 163H103C107.418 163 111 159.418 111 155V48C111 43.5817 107.418 40 103 40H16ZM119 48C119 43.5817 122.582 40 127 40H214C218.418 40 222 43.5817 222 48V155C222 159.418 218.418 163 214 163H127C122.582 163 119 159.418 119 155V48ZM238 40C233.582 40 230 43.5817 230 48V155C230 159.418 233.582 163 238 163H325C329.418 163 333 159.418 333 155V48C333 43.5817 329.418 40 325 40H238Z" fill="white"/>
<path d="M337 90H361V123C361 128.523 356.523 133 351 133H347C341.477 133 337 128.523 337 123V90Z" fill="white"/>
<path d="M79.0182 73H38.692C31.2774 73 26.5779 81.5722 30.3081 88.502L55.196 134.736C56.8201 137.755 60.8901 137.755 62.5141 134.736L87.407 88.502C91.1322 81.5832 86.4327 73 79.0232 73H79.0182ZM55.1757 120.871L49.7556 109.628L36.6773 84.5585C35.8145 82.9539 36.8802 80.8977 38.6869 80.8977H55.1707V120.876L55.1757 120.871ZM81.0227 84.553L67.9495 109.633L62.5293 120.871V80.8923H79.0131C80.8198 80.8923 81.8855 82.9485 81.0227 84.553Z" fill="white"/>
<path d="M190.018 73H149.692C142.277 73 137.578 81.5722 141.308 88.502L166.196 134.736C167.82 137.755 171.89 137.755 173.514 134.736L198.407 88.502C202.132 81.5832 197.433 73 190.023 73H190.018ZM166.176 120.871L160.756 109.628L147.677 84.5585C146.815 82.9539 147.88 80.8977 149.687 80.8977H166.171V120.876L166.176 120.871ZM192.023 84.553L178.949 109.633L173.529 120.871V80.8923H190.013C191.82 80.8923 192.885 82.9485 192.023 84.553Z" fill="#4ADE80"/>
<path d="M304.018 73H263.692C256.277 73 251.578 81.5721 255.308 88.502L280.196 134.736C281.82 137.755 285.89 137.755 287.514 134.736L312.407 88.502C316.132 81.5832 311.433 73 304.023 73H304.018ZM280.176 120.871L274.756 109.628L261.677 84.5584C260.815 82.9539 261.88 80.8977 263.687 80.8977H280.171V120.876L280.176 120.871ZM306.023 84.553L292.949 109.633L287.529 120.871V80.8922H304.013C305.82 80.8922 306.885 82.9484 306.023 84.553Z" fill="white"/>
<path d="M353 7H361V100H353V7Z" fill="white"/>
<path d="M370 13.5C370 20.9558 364.18 27 357 27C349.82 27 344 20.9558 344 13.5C344 6.04414 349.82 -2.09961e-05 357 -2.09961e-05C364.18 -2.09961e-05 370 6.04414 370 13.5Z" fill="#4ADE80"/>
</svg>
